<svg width="1440" height="1024" viewBox="0 0 1440 1024" fill="none" xmlns="http://www.w3.org/2000/svg">
<mask id="mask0_2010_583" style="mask-type:alpha" maskUnits="userSpaceOnUse" x="0" y="0" width="1440" height="1024">
<rect width="1440" height="1024" fill="#171A45"/>
</mask>
<g mask="url(#mask0_2010_583)">
<g filter="url(#filter0_f_2010_583)">
<path fill-rule="evenodd" clip-rule="evenodd" d="M-386.358 193.132C-343.273 -49.728 -70.1365 -81.7954 105.878 -194.926C237.226 -279.347 367.62 -348.875 512.445 -384.556C661.188 -421.204 807.593 -431.283 957.83 -404.829C1153.31 -370.41 1395.94 -404.56 1516.64 -207.737C1636.28 -12.6271 1534.19 270.038 1522.29 515.667C1511.49 738.565 1523.73 962.615 1450.08 1165.58C1370.38 1385.22 1267.56 1622.39 1088.81 1710.27C912.005 1797.19 719.564 1674.17 535.289 1615.32C373.868 1563.76 196.311 1538.5 80.1585 1388.12C-32.2033 1242.64 -4.00517 1007.09 -75.0701 825.058C-163.691 598.055 -430.077 439.57 -386.358 193.132Z" fill="#231C4A"/>
</g>
<g filter="url(#filter1_f_2010_583)">
<path fill-rule="evenodd" clip-rule="evenodd" d="M306.108 -366.555C403.799 -361.417 499.737 -337.002 581.774 -281.514C663.564 -226.192 730.295 -148.106 767.744 -54.3128C804.463 37.6562 799.172 138.565 789.041 237.61C778.572 339.956 770.972 448.71 708.162 528.167C644.777 608.351 542.121 634.378 448.083 668.933C348.908 705.376 247.802 760.453 145.535 734.911C41.7898 708.999 -57.469 633.824 -100.187 531.995C-140.995 434.72 -52.5809 326.212 -69.8108 221.583C-87.854 112.015 -217.078 34.193 -200.241 -75.5829C-183.583 -184.189 -80.5009 -258.358 11.9514 -311.485C100.984 -362.647 204.555 -371.896 306.108 -366.555Z" fill="#7200FF"/>
</g>
<g filter="url(#filter2_f_2010_583)">
<path fill-rule="evenodd" clip-rule="evenodd" d="M1412.13 431.1C1526.38 413.633 1655.59 452.853 1735.56 512.462C1811.92 569.385 1787.99 659.26 1818.79 734.238C1843.97 795.554 1917.73 850.354 1900.04 912.935C1882.48 975.064 1788.05 1007.65 1728.08 1055.14C1668.75 1102.13 1635.92 1173.89 1549.46 1190.59C1463.04 1207.28 1382 1157.79 1296.71 1138.46C1214.33 1119.79 1130.04 1111.27 1056.82 1078.96C961.712 1037 848.495 998.424 811.295 924.274C772.842 847.627 789.926 752.504 860.715 688.07C929.693 625.285 1074.22 643.085 1168.48 599.16C1265.39 553.995 1298.31 448.501 1412.13 431.1Z" fill="#FA00FF"/>
</g>
</g>
<defs>
<filter id="filter0_f_2010_583" x="-891.167" y="-919.708" width="2965.36" height="3160.09" filterUnits="userSpaceOnUse" color-interpolation-filters="sRGB">
<feFlood flood-opacity="0" result="BackgroundImageFix"/>
<feBlend mode="normal" in="SourceGraphic" in2="BackgroundImageFix" result="shape"/>
<feGaussianBlur stdDeviation="250" result="effect1_foregroundBlur_2010_583"/>
</filter>
<filter id="filter1_f_2010_583" x="-701.75" y="-867.886" width="1998.25" height="2109.33" filterUnits="userSpaceOnUse" color-interpolation-filters="sRGB">
<feFlood flood-opacity="0" result="BackgroundImageFix"/>
<feBlend mode="normal" in="SourceGraphic" in2="BackgroundImageFix" result="shape"/>
<feGaussianBlur stdDeviation="250" result="effect1_foregroundBlur_2010_583"/>
</filter>
<filter id="filter2_f_2010_583" x="191.25" y="-173.08" width="2311.5" height="1967.05" filterUnits="userSpaceOnUse" color-interpolation-filters="sRGB">
<feFlood flood-opacity="0" result="BackgroundImageFix"/>
<feBlend mode="normal" in="SourceGraphic" in2="BackgroundImageFix" result="shape"/>
<feGaussianBlur stdDeviation="300" result="effect1_foregroundBlur_2010_583"/>
</filter>
</defs>
</svg>
