<svg width="20" height="20" viewBox="0 0 20 20" fill="none" xmlns="http://www.w3.org/2000/svg">
<path d="M5.28178 12.3702C5.37945 11.5615 5.71112 11.1088 6.33614 10.6446C7.23043 10.016 8.34752 10.3716 8.34752 10.3716V8.2621C8.6191 8.25516 8.89078 8.27126 9.1594 8.31021V11.0249C9.1594 11.0249 8.04264 10.6693 7.14836 11.2983C6.52368 11.7621 6.19133 12.2152 6.094 13.0239C6.09095 13.463 6.17336 14.037 6.55284 14.5333C6.45902 14.4852 6.36338 14.4304 6.26594 14.3689C5.42998 13.8075 5.27771 12.9654 5.28178 12.3702ZM13.7719 4.36168C13.1567 3.68756 12.9241 3.00694 12.84 2.52881H13.6139C13.6139 2.52881 13.4596 3.78247 14.5841 5.01533L14.5997 5.0319C14.2966 4.84125 14.0187 4.61622 13.7719 4.36168ZM17.5 6.27289V8.93297C17.5 8.93297 16.5124 8.89429 15.7816 8.70837C14.7612 8.44835 14.1053 8.04953 14.1053 8.04953C14.1053 8.04953 13.6522 7.76512 13.6156 7.7453V13.2384C13.6156 13.5442 13.5318 14.3081 13.2764 14.9451C12.9431 15.7785 12.4286 16.3256 12.334 16.4374C12.334 16.4374 11.7083 17.1768 10.6044 17.6748C9.60943 18.124 8.73583 18.1126 8.47469 18.124C8.47469 18.124 6.96455 18.1838 5.60565 17.3007C5.3118 17.106 5.0375 16.8856 4.78631 16.6422L4.7931 16.647C6.15233 17.5301 7.66214 17.4703 7.66214 17.4703C7.92361 17.459 8.79721 17.4703 9.79188 17.0211C10.8947 16.5232 11.5214 15.7837 11.5214 15.7837C11.615 15.6719 12.1319 15.1249 12.4639 14.2912C12.7186 13.6544 12.803 12.8903 12.803 12.5844V7.09198C12.8396 7.11213 13.2924 7.39653 13.2924 7.39653C13.2924 7.39653 13.9486 7.79568 14.969 8.05538C15.7002 8.2413 16.6874 8.27998 16.6874 8.27998V6.19553C17.0252 6.27126 17.3131 6.29174 17.5 6.27289Z" fill="#6366F1"/>
<path d="M16.6878 6.19553V8.27933C16.6878 8.27933 15.7006 8.24065 14.9694 8.05473C13.9489 7.7947 13.2927 7.39588 13.2927 7.39588C13.2927 7.39588 12.84 7.11148 12.8034 7.09132V12.5851C12.8034 12.8909 12.7196 13.6551 12.4642 14.2918C12.1309 15.1255 11.6164 15.6726 11.5218 15.7844C11.5218 15.7844 10.8958 16.5238 9.79223 17.0218C8.79756 17.471 7.92396 17.4596 7.66249 17.471C7.66249 17.471 6.15268 17.5308 4.79345 16.6477L4.78666 16.6428C4.64316 16.5038 4.50808 16.3571 4.38208 16.2034C3.94833 15.6745 3.68246 15.0492 3.61565 14.8707C3.61553 14.87 3.61553 14.8692 3.61565 14.8684C3.50814 14.5584 3.28228 13.8137 3.31314 13.0924C3.36774 11.8199 3.81539 11.0389 3.93375 10.8432C4.24721 10.3096 4.6549 9.83221 5.13868 9.43223C5.56559 9.08708 6.04947 8.81246 6.57049 8.61964C7.13373 8.39324 7.73685 8.27189 8.34753 8.2621V10.3716C8.34753 10.3716 7.23044 10.0173 6.33649 10.6446C5.71147 11.1088 5.3798 11.5615 5.28213 12.3702C5.27806 12.9654 5.43033 13.8075 6.26561 14.3692C6.36305 14.4309 6.45869 14.4858 6.55251 14.5337C6.69844 14.7233 6.87605 14.8886 7.07817 15.0228C7.89411 15.5393 8.5778 15.5754 9.45208 15.24C10.035 15.0157 10.4739 14.5102 10.6774 13.9502C10.8052 13.6005 10.8035 13.2485 10.8035 12.8844V2.52881H12.8383C12.9224 3.00694 13.155 3.68756 13.7702 4.36168C14.017 4.61622 14.295 4.84125 14.598 5.0319C14.6876 5.12454 15.1454 5.58251 15.7331 5.86367C16.037 6.009 16.3573 6.12035 16.6878 6.19553Z" fill="#6366F1"/>
<path d="M2.80579 14.2231V14.2248L2.85628 14.3616C2.85048 14.3457 2.83172 14.2973 2.80579 14.2231Z" fill="#A5B4FC"/>
<path d="M6.57051 8.6199C6.0495 8.81272 5.56561 9.08734 5.1387 9.43249C4.65477 9.83337 4.24718 10.3118 3.93411 10.8464C3.81576 11.0414 3.3681 11.8231 3.3135 13.0956C3.28264 13.8169 3.5085 14.5615 3.61601 14.8716C3.61589 14.8724 3.61589 14.8731 3.61601 14.8739C3.68383 15.0507 3.94869 15.6761 4.38244 16.2065C4.50844 16.3603 4.64352 16.507 4.78702 16.646C4.32723 16.3412 3.91716 15.9727 3.57023 15.5526C3.14021 15.0283 2.87501 14.4094 2.80583 14.2268C2.80574 14.2255 2.80574 14.2242 2.80583 14.2229V14.2206C2.69798 13.9108 2.47144 13.1658 2.50298 12.4436C2.55758 11.1711 3.00523 10.39 3.12359 10.1944C3.43657 9.6597 3.84417 9.18128 4.32818 8.78047C4.755 8.4352 5.23891 8.16057 5.75999 7.96788C6.08501 7.83863 6.42361 7.74328 6.76992 7.68348C7.29183 7.59616 7.82487 7.58859 8.34925 7.66105V8.26236C7.738 8.27195 7.13427 8.3933 6.57051 8.6199Z" fill="#A5B4FC"/>
<path d="M12.84 2.52897H10.8052V12.8849C10.8052 13.2489 10.8052 13.6 10.679 13.9507C10.4735 14.5104 10.0364 15.0158 9.45376 15.2401C8.57915 15.5768 7.89546 15.5395 7.07985 15.023C6.87738 14.8894 6.69932 14.7246 6.55284 14.5354C7.24772 14.8907 7.86969 14.8845 8.64019 14.5881C9.22248 14.3638 9.66029 13.8584 9.86513 13.2984C9.99332 12.9486 9.99162 12.5966 9.99162 12.2329V1.875H12.8013C12.8013 1.875 12.7698 2.13243 12.84 2.52897ZM16.6877 5.6194V6.19569C16.3579 6.12039 16.0381 6.00904 15.7348 5.86383C15.1471 5.58267 14.6893 5.1247 14.5997 5.03206C14.7036 5.09744 14.8114 5.15691 14.9226 5.21018C15.6371 5.55212 16.3408 5.65418 16.6877 5.6194Z" fill="#A5B4FC"/>
</svg>
