<svg width="36" height="36" viewBox="0 0 36 36" fill="none" xmlns="http://www.w3.org/2000/svg">
<rect x="0.5" y="0.5" width="35" height="35" rx="17.5" fill="white"/>
<rect x="0.5" y="0.5" width="35" height="35" rx="17.5" stroke="#CBD5E1"/>
<path d="M15.368 25.5C13.3461 25.5 11.4614 24.9119 9.875 23.8973C11.2219 23.9844 13.5988 23.7757 15.0772 22.3655C12.8532 22.2634 11.8502 20.5577 11.7193 19.8287C11.9083 19.9016 12.8096 19.9891 13.3183 19.785C10.7599 19.1435 10.3675 16.8983 10.4547 16.2131C10.9344 16.5484 11.7484 16.6651 12.0682 16.6359C9.68425 14.9301 10.5419 12.3642 10.9634 11.8102C12.6743 14.1804 15.2383 15.5116 18.4102 15.5857C18.3504 15.3233 18.3188 15.0503 18.3188 14.7698C18.3188 12.7568 19.9459 11.125 21.9529 11.125C23.0016 11.125 23.9465 11.5705 24.6098 12.283C25.3106 12.1188 26.3652 11.7344 26.8808 11.402C26.6209 12.3351 25.8118 13.1134 25.3224 13.4019C25.3185 13.3921 25.3265 13.4117 25.3224 13.4019C25.7523 13.3369 26.9155 13.1134 27.375 12.8016C27.1478 13.3258 26.29 14.1973 25.5861 14.6853C25.717 20.4613 21.2978 25.5 15.368 25.5Z" fill="#6366F1"/>
</svg>
